PathFileType	4	(X/Y/Z)	C:\Git\research_data\ESMAC_2023\simulations\TD07\pre\dynamic21_l\marker_experimental.trc
DataRate	CameraRate	NumFrames	NumMarkers	Units	OrigDataRate	OrigDataStartFrame	OrigNumFrames
200.000000	200.000000	4	54	mm	200.000000	192	385
Frame#	Time	C7			T10			CLAV			STRN			RBAK			LASI			RASI			SACR			RT2			RT3			RKNE			RS1			RS2			RS3			RANK			RHEE			RTOE			RM5D			LT1			LT2			LT3			LKNE			LS1			LS2			LS3			LANK			LHEE			LTOE			LM5D			RT1			*30			*31			*32			*33			*34			*35			*36			*37			*38			*39			*40			*41			*42			*43			*44			*45			*46			*47			*48			*49			*50			*51			*52			*53			
		X1	Y1	Z1	X2	Y2	Z2	X3	Y3	Z3	X4	Y4	Z4	X5	Y5	Z5	X6	Y6	Z6	X7	Y7	Z7	X8	Y8	Z8	X9	Y9	Z9	X10	Y10	Z10	X11	Y11	Z11	X12	Y12	Z12	X13	Y13	Z13	X14	Y14	Z14	X15	Y15	Z15	X16	Y16	Z16	X17	Y17	Z17	X18	Y18	Z18	X19	Y19	Z19	X20	Y20	Z20	X21	Y21	Z21	X22	Y22	Z22	X23	Y23	Z23	X24	Y24	Z24	X25	Y25	Z25	X26	Y26	Z26	X27	Y27	Z27	X28	Y28	Z28	X29	Y29	Z29	X30	Y30	Z30	X31	Y31	Z31	X32	Y32	Z32	X33	Y33	Z33	X34	Y34	Z34	X35	Y35	Z35	X36	Y36	Z36	X37	Y37	Z37	X38	Y38	Z38	X39	Y39	Z39	X40	Y40	Z40	X41	Y41	Z41	X42	Y42	Z42	X43	Y43	Z43	X44	Y44	Z44	X45	Y45	Z45	X46	Y46	Z46	X47	Y47	Z47	X48	Y48	Z48	X49	Y49	Z49	X50	Y50	Z50	X51	Y51	Z51	X52	Y52	Z52	X53	Y53	Z53	X54	Y54	Z54	

193	0.96	730.2579956054686	1264.916381835938	217.0245971679689	709.0353393554686	1038.5927734375	225.2350006103517	856.7357177734374	1211.991333007812	225.2692108154299	909.5245971679686	1080.373413085938	229.4307861328127	696.2402343749998	1134.363403320312	322.8061828613282	854.5330810546875	835.97802734375	106.4296493530275	849.0643310546874	851.1614379882812	358.6268005371095	691.3394775390625	877.8311767578125	228.0931243896486	797.5591430664061	534.0438232421875	355.259979248047	847.5881958007811	544.9785766601562	353.9466552734377	859.5298461914061	439.9806213378907	330.4381713867189	813.3006591796874	336.0352478027344	345.9603271484377	776.6543579101561	281.0858459472657	346.944793701172	829.4460449218749	272.3855895996094	338.7465209960939	792.3491821289062	77.46007537841801	303.0132446289064	733.6661376953125	47.17805099487309	267.6262817382814	931.4412841796875	46.04566192626959	262.1056518554689	857.8818969726561	34.32107925415044	310.5891113281252	883.2257690429688	647.525390625	66.26465606689469	876.343505859375	582.5368041992188	63.22016525268571	925.4022827148438	595.8163452148438	79.58145904541033	913.7660522460938	437.4911499023438	74.70282745361345	833.7077026367188	329.6819763183594	75.83512115478531	769.692138671875	310.9071655273438	73.63973236083999	800.8466186523438	274.5545654296876	89.97824096679702	648.0664672851562	177.5242309570313	116.5417938232423	605.2678833007812	180.2593383789063	163.9085693359376	757.2088012695312	68.98033142089848	120.281463623047	685.4298095703125	101.4904479980469	86.91511535644544	837.3093872070311	581.3793334960938	370.1243591308595	nan	nan	nan	nan	nan	nan	nan	nan	nan	nan	nan	nan	nan	nan	nan	nan	nan	nan	nan	nan	nan	nan	nan	nan	nan	nan	nan	nan	nan	nan	nan	nan	nan	nan	nan	nan	nan	nan	nan	nan	nan	nan	nan	nan	nan	nan	nan	nan	nan	nan	nan	nan	nan	nan	nan	nan	nan	nan	nan	nan	nan	nan	nan	nan	nan	nan	nan	nan	nan	nan	nan	nan	
194	0.965	735.8933105468749	1265.749145507812	217.7766876220705	714.5799560546874	1039.434814453125	225.6218109130861	862.2913818359374	1212.88818359375	225.5693969726564	915.1094360351561	1081.289916992188	229.7033996582033	702.0694580078123	1135.317993164062	323.7066955566407	860.33740234375	837.3626098632812	106.8233413696291	854.1616821289061	851.5512084960938	358.9631347656252	696.8538818359375	878.8460083007812	227.9472045898439	798.9492797851561	534.6165161132812	354.9599609375002	849.3856201171874	544.8004760742188	353.842742919922	860.1926269531249	439.8334960937501	330.2168273925783	813.3643188476561	336.1888122558594	345.668914794922	776.4425048828124	281.3836364746094	346.2750854492189	829.4218139648436	272.4531860351563	338.7198486328127	792.0208740234375	77.69844055175786	302.8940734863283	733.6475219726562	47.21106719970707	267.439910888672	931.4616088867188	46.00799179077154	262.045379638672	857.8494873046874	34.37849807739263	310.4779357910158	891.1683349609375	649.8082885742188	66.60931396484392	884.9828491210938	584.833740234375	63.48296737670915	933.8495483398438	598.5642089843751	80.20979309082048	924.179931640625	440.0585021972657	75.42440032959001	846.6693725585938	330.1862792968751	76.36207580566422	783.2098999023438	309.5350646972657	73.95891571044936	815.341552734375	274.0827636718751	90.38744354248063	665.3319091796875	172.5625305175782	116.6423645019533	622.3983154296875	173.9715270996094	164.0465393066407	777.9033203125	67.75133514404301	120.1165084838869	704.95947265625	97.91474151611332	86.74527740478528	838.6956787109374	581.9541625976562	369.819793701172	nan	nan	nan	nan	nan	nan	nan	nan	nan	nan	nan	nan	nan	nan	nan	nan	nan	nan	nan	nan	nan	nan	nan	nan	nan	nan	nan	nan	nan	nan	nan	nan	nan	nan	nan	nan	nan	nan	nan	nan	nan	nan	nan	nan	nan	nan	nan	nan	nan	nan	nan	nan	nan	nan	nan	nan	nan	nan	nan	nan	nan	nan	nan	nan	nan	nan	nan	nan	nan	nan	nan	nan	
195	0.97	741.5551147460936	1266.498779296875	218.5295867919923	720.1336669921874	1040.200805664062	225.9909515380861	867.8742065429686	1213.695922851562	225.870819091797	920.7147827148436	1082.109252929688	229.968460083008	707.9348144531248	1136.189086914062	324.619598388672	866.1375122070312	838.644287109375	107.1803359985353	859.2506713867186	851.8663940429688	359.2783813476564	702.3756103515625	879.758544921875	227.7666168212892	800.4271240234374	535.1821899414062	354.6649169921877	851.2092285156249	544.6215209960938	353.7598876953127	860.8767089843749	439.6677856445313	330.0236206054689	813.4169921874999	336.3399963378907	345.3950500488283	776.2006225585936	281.6990356445313	345.5886535644533	829.3859863281249	272.5206298828126	338.736297607422	791.6710205078125	77.95057678222661	302.7809448242189	733.6329345703125	47.252613067627	267.2541809082032	931.4923095703125	45.96692657470709	261.9902954101564	857.8174438476561	34.43141937255864	310.3712158203127	899.0247192382812	652.007568359375	66.9378738403322	893.5458374023438	587.0348510742188	63.74971008300798	942.1217651367188	601.2316284179689	80.83042907714861	934.36474609375	442.5541687011719	76.14678955078142	859.4804077148438	330.6593933105469	76.86900329589859	796.6437377929688	308.1154174804688	74.32359313964858	829.7661743164062	273.5797424316407	90.74822235107438	682.8010864257812	167.4873504638672	116.7628707885743	639.8419189453125	167.5342254638672	164.2237548828126	798.712646484375	66.56267547607426	119.832733154297	724.641357421875	94.2981338500977	86.53865051269544	840.1640014648436	582.5194091796875	369.5191040039064	nan	nan	nan	nan	nan	nan	nan	nan	nan	nan	nan	nan	nan	nan	nan	nan	nan	nan	nan	nan	nan	nan	nan	nan	nan	nan	nan	nan	nan	nan	nan	nan	nan	nan	nan	nan	nan	nan	nan	nan	nan	nan	nan	nan	nan	nan	nan	nan	nan	nan	nan	nan	nan	nan	nan	nan	nan	nan	nan	nan	nan	nan	nan	nan	nan	nan	nan	nan	nan	nan	nan	nan	
196	0.975	747.2436523437499	1267.162231445312	219.2829742431642	725.6966552734374	1040.88720703125	226.3405151367189	873.4855346679686	1214.409790039062	226.1713256835939	926.3400268554686	1082.826171875	230.2227783203127	713.836975097656	1136.972900390625	325.5437011718751	871.9359741210938	839.8150634765625	107.5002670288088	864.3304443359374	852.1080322265625	359.573455810547	707.9053344726562	880.5643310546875	227.549758911133	801.9978637695311	535.7364501953125	354.3737182617189	853.0646972656249	544.4395141601562	353.6973876953127	861.5926513671874	439.4829711914063	329.8591308593752	813.4841918945311	336.4852600097657	345.1466369628908	775.9656982421874	282.0237426757813	344.918182373047	829.3618774414061	272.5869445800782	338.7898559570314	791.314208984375	78.20960235595707	302.6744995117189	733.6223754882812	47.30287551879887	267.0742492675782	931.53564453125	45.92299652099615	261.9407043457033	857.7869262695311	34.47860336303716	310.2710571289064	906.7884521484375	654.1133422851562	67.2471008300783	902.0368041992188	589.1292724609375	64.01602935791033	950.2106323242188	603.8139648437501	81.44328308105486	944.3134155273438	444.9636840820313	76.86595153808611	872.1293334960938	331.0982360839844	77.35199737548844	809.9829711914062	306.6521606445313	74.7336578369142	844.1095581054688	273.0497436523438	91.05578613281266	700.4679565429688	162.3269958496094	116.9045181274415	657.5993041992188	160.9778747558594	164.4443817138673	819.6206665039062	65.43399810791021	119.4088211059572	744.4639282226562	90.66870117187504	86.28704071044936	841.7214965820311	583.0711669921875	369.2219543457033	nan	nan	nan	nan	nan	nan	nan	nan	nan	nan	nan	nan	nan	nan	nan	nan	nan	nan	nan	nan	nan	nan	nan	nan	nan	nan	nan	nan	nan	nan	nan	nan	nan	nan	nan	nan	nan	nan	nan	nan	nan	nan	nan	nan	nan	nan	nan	nan	nan	nan	nan	nan	nan	nan	nan	nan	nan	nan	nan	nan	nan	nan	nan	nan	nan	nan	nan	nan	nan	nan	nan	nan	
